# xmcd
#
# Track frame offsets:
#	150
#	11225
#	24623
#	43562
#	55426
#	68111
#	82247
#	95309
#	114513
#	125116
#	136265
#	151854
#	163298
#	178570
#	196850
#	215398
#	232189
#	256149
#	274699
#	292483
#	305074
#	322261
#
# Disc length: 4513 seconds
#
# Revision: 0
# Processed by: cddbd v1.5.2PL0 Copyright (c) Steve Scherf et al.
# Submitted via: dBpowerAMP V4.0
#
DISCID=54119f16
DTITLE=Bintangs - Other Bulls
DYEAR=2009
DGENRE=Blues
TTITLE0=Everything
TTITLE1=Big black tank
TTITLE2=The Price
TTITLE3=Mush Mouth milly
TTITLE4=Run Run Rudolph
TTITLE5=Singifying Monkey
TTITLE6=Wait
TTITLE7=I been hoodood
TTITLE8=Yes tonight Josephine
TTITLE9=Screw drivin'man
TTITLE10=Johnny do it faster
TTITLE11=Fat lookin'woman
TTITLE12=Bayou woman
TTITLE13=It's all in my room
TTITLE14=Rosemary Nymphet
TTITLE15=Sorry Jim
TTITLE16=I Know, I know
TTITLE17=I'm a rocker
TTITLE18=What's bugging you
TTITLE19=Diana
TTITLE20=Are you lonely for me baby
TTITLE21=Speedo's back in town
EXTD=Second disk with Genuine Bull deluxe edition
EXTT0=
EXTT1=
EXTT2=
EXTT3=
EXTT4=
EXTT5=
EXTT6=
EXTT7=
EXTT8=
EXTT9=
EXTT10=
EXTT11=
EXTT12=
EXTT13=
EXTT14=
EXTT15=
EXTT16=
EXTT17=
EXTT18=
EXTT19=
EXTT20=
EXTT21=
PLAYORDER=
